<svg xmlns="http://www.w3.org/2000/svg" xmlns:xlink="http://www.w3.org/1999/xlink" version="1.1" id="Layer_1" x="0px" y="0px" width="90px" height="90px" viewBox="4.5 -9.0 90.0 121.5" enable-background="new 0 0 90 90" xml:space="preserve">
<g>
	<path fill="#000000" d="M76.152,3.711V0H13.848v3.711c0,22.779,12.244,41.588,27.903,43.895v35.606H19.97   c-1.324,0-2.403,1.087-2.403,2.402v1.981c0,1.323,1.079,2.402,2.403,2.402h50.053c1.324,0,2.402-1.079,2.402-2.402v-1.981   c0-1.315-1.078-2.402-2.402-2.402H48.242V47.605C63.9,45.3,76.152,26.491,76.152,3.711z M21.404,7.438h47.185   c-1.205,18.483-11.327,32.975-23.593,32.975C32.73,40.413,22.609,25.921,21.404,7.438z"/>
	<path fill="#000000" d="M58.415,20.85c1.878,0,3.306,0.828,4.584,1.959c0,0,0.776-0.983,1.485-3.305   c0.548-1.804,0.844-3.349,0.844-3.349c-1.582-0.865-4.43-1.997-6.913-1.997c-5.39,0-8.272,2.891-10.373,4.998   c-1.981,1.989-3.135,3.024-5.641,3.024c-2.499,0-3.646-1.035-5.634-3.024c-2.107-2.107-6.706-5.855-12.103-4.961   c0,0,0,1.287,0.502,3.549c0.458,2.055,1.235,3.105,1.235,3.105c2.499,0,3.645,1.035,5.641,3.024   c2.093,2.107,4.976,4.99,10.358,4.99c5.39,0,8.266-2.883,10.374-4.99C54.756,21.884,55.916,20.85,58.415,20.85z"/>
</g>
<text x="0.0" y="105.75" font-size="4.5" font-weight="bold" font-family="Helvetica Neue, Helvetica, Arial-Unicode, Arial, Sans-serif" fill="#000000">Created by Sara Quintana</text><text x="0.0" y="110.25" font-size="4.5" font-weight="bold" font-family="Helvetica Neue, Helvetica, Arial-Unicode, Arial, Sans-serif" fill="#000000">from the Noun Project</text></svg>